<svg xmlns="http://www.w3.org/2000/svg" width="13" height="12" viewBox="0 0 13 12" fill="none">
<path d="M11.5781 6C11.5781 6.14919 11.5139 6.29226 11.3996 6.39775C11.2854 6.50324 11.1304 6.5625 10.9687 6.5625H3.5039L6.12015 8.97703C6.23463 9.08271 6.29894 9.22603 6.29894 9.37547C6.29894 9.52492 6.23463 9.66824 6.12015 9.77391C6.00567 9.87958 5.8504 9.93895 5.68851 9.93895C5.52661 9.93895 5.37135 9.87958 5.25687 9.77391L1.60062 6.39891C1.54381 6.34665 1.49873 6.28456 1.46798 6.21618C1.43722 6.14781 1.42139 6.0745 1.42139 6.00047C1.42139 5.92644 1.43722 5.85313 1.46798 5.78476C1.49873 5.71639 1.54381 5.65429 1.60062 5.60203L5.25687 2.22703C5.31355 2.17471 5.38084 2.13321 5.45491 2.10489C5.52897 2.07657 5.60834 2.062 5.68851 2.062C5.76867 2.062 5.84805 2.07657 5.92211 2.10489C5.99617 2.13321 6.06346 2.17471 6.12015 2.22703C6.17683 2.27936 6.2218 2.34148 6.25247 2.40984C6.28315 2.4782 6.29894 2.55148 6.29894 2.62547C6.29894 2.69947 6.28315 2.77274 6.25247 2.84111C6.2218 2.90947 6.17683 2.97159 6.12015 3.02391L3.5039 5.4375H10.9687C11.1304 5.4375 11.2854 5.49677 11.3996 5.60226C11.5139 5.70774 11.5781 5.85082 11.5781 6Z" fill="#F24E1E"/>
</svg>