<svg width="79" height="79" viewBox="0 0 79 79" fill="none" xmlns="http://www.w3.org/2000/svg">
<path d="M71.5938 43.2031H12.3438V15.4296C12.3409 14.3837 12.5455 13.3476 12.9458 12.3813C13.3461 11.415 13.934 10.5377 14.6756 9.80011L14.7374 9.73839C15.8996 8.57784 17.3918 7.80441 19.0102 7.52378C20.6285 7.24314 22.294 7.46897 23.7792 8.17043C22.3765 10.5025 21.7936 13.2364 22.1228 15.9377C22.4521 18.639 23.6747 21.1529 25.5965 23.0797L27.2862 24.7694L24.176 27.8797L27.6671 31.3708L30.7773 28.2607L48.0106 11.0277L51.1207 7.91754L47.6294 4.42626L44.5191 7.53642L42.8294 5.84672C40.8064 3.82933 38.1396 2.58575 35.2938 2.33266C32.4481 2.07957 29.6037 2.83304 27.2564 4.46175C24.7812 2.89859 21.8479 2.22376 18.9385 2.54812C16.029 2.87249 13.3164 4.17675 11.2462 6.24666L11.1845 6.30838C9.98292 7.5034 9.03028 8.92488 8.38174 10.4905C7.7332 12.0562 7.40164 13.735 7.40625 15.4296V43.2031H2.46875V48.1406H7.40625V52.8775C7.40614 53.2755 7.47033 53.6709 7.59634 54.0484L12.1895 67.8271C12.4346 68.5648 12.9059 69.2065 13.5365 69.6611C14.1671 70.1156 14.9248 70.36 15.7022 70.3593H17.6926L15.8926 76.5312H21.0358L22.8359 70.3593H54.9451L56.7967 76.5312H61.9502L60.0986 70.3593H63.2972C64.0747 70.3601 64.8326 70.1158 65.4633 69.6613C66.094 69.2067 66.5654 68.5649 66.8105 67.8271L71.4033 54.0484C71.5294 53.6709 71.5937 53.2755 71.5938 52.8775V48.1406H76.5312V43.2031H71.5938ZM29.088 9.33799C30.4483 7.98068 32.2915 7.2184 34.2131 7.2184C36.1347 7.2184 37.9779 7.98068 39.3381 9.33799L41.0275 11.0277L30.7778 21.2775L29.088 19.5881C27.7308 18.2278 26.9686 16.3846 26.9686 14.463C26.9686 12.5414 27.7308 10.6983 29.088 9.33799ZM66.6562 52.6769L62.4081 65.4218H16.5919L12.3438 52.6769V48.1406H66.6562V52.6769Z" fill="black"/>
</svg>
