<svg width="80" height="80" viewBox="0 0 80 80" fill="none" xmlns="http://www.w3.org/2000/svg">
<path d="M26.6666 16.6666C24.9999 16.6666 23.3333 17.3666 22.0333 18.6666C20.7333 19.9666 19.9999 21.5 19.9999 23.3333V33.3333C18.2333 33.3333 16.6666 33.9666 15.2999 35.3C13.9333 36.6333 13.3333 38.2333 13.3333 40V56.6666H17.7999L19.9999 63.3333H23.3333L25.6333 56.6666H54.5333L56.6666 63.3333H59.9999L62.1999 56.6666H66.6666V40C66.6666 38.2333 66.0333 36.6666 64.6999 35.3C63.3666 33.9333 61.7666 33.3333 59.9999 33.3333V23.3333C59.9999 21.5 59.3333 20 57.9666 18.6666C56.5999 17.3333 54.9999 16.6666 53.3333 16.6666M26.6666 23.3333H36.6666V33.3333H26.6666M43.3333 23.3333H53.3333V33.3333H43.3333M19.9999 40H59.9999V50H19.9999V40Z" fill="black"/>
</svg>
