<svg width="80" height="80" viewBox="0 0 80 80" fill="none" xmlns="http://www.w3.org/2000/svg">
<path d="M39.9999 6.89969L3.0874 25.9088L4.9999 27.1777L39.9999 9.67766L74.9999 27.1777L76.9124 25.9089L39.9999 6.89969ZM39.9999 12.8222L6.40615 29.6191V77.3438H11.0937V31.7188H68.9061V77.3438H73.5936V29.6191L39.9999 12.8222ZM14.3749 34.8438V37.6563H65.6249V34.8438H14.3749ZM14.3749 40.4688V43.2813H65.6249V40.4688H14.3749ZM29.9999 46.0938C28.6718 46.0938 27.751 46.9569 27.039 47.9063C26.3271 48.8555 25.7458 50.047 25.2455 51.3813C24.5783 53.1608 24.0674 55.1834 23.8005 57.1448C22.4377 56.7956 20.3555 56.4525 19.9999 57.5C19.6321 58.5834 21.1474 59.6223 22.6043 60.3464C22.5543 60.5131 22.5058 60.6855 22.4627 60.8689C22.1826 62.0594 22.0312 63.5313 22.0312 65C22.0312 66.4688 22.1826 67.9406 22.4627 69.1313C22.6615 69.9759 22.9483 70.6572 23.204 71.0938H56.7958C57.0515 70.6572 57.3383 69.9759 57.5371 69.1313C57.8172 67.9406 57.9686 66.4688 57.9686 65C57.9686 63.5313 57.8172 62.0594 57.5371 60.8688C57.4952 60.6932 57.448 60.519 57.3955 60.3464C58.8524 59.6223 60.3677 58.5834 59.9999 57.5C59.6443 56.4525 57.5621 56.7956 56.1993 57.1448C55.9326 55.1834 55.4216 53.1608 54.7543 51.3813C54.254 50.047 53.6727 48.8555 52.9607 47.9063C52.2488 46.9569 51.328 46.0938 49.9999 46.0938H29.9999ZM29.9999 48.9063H49.9999C49.9218 48.9063 50.251 48.9806 50.7108 49.5938C51.1708 50.207 51.6833 51.203 52.1205 52.3688C52.6944 53.8992 53.1343 55.7183 53.3749 57.4334C49.7179 56.4258 45.653 56.4063 39.9999 56.4063C34.3468 56.4063 30.2819 56.4258 26.6249 57.4334C26.8655 55.7183 27.3054 53.8991 27.8793 52.3688C28.3165 51.203 28.829 50.207 29.2888 49.5938C29.7488 48.9806 30.078 48.9063 29.9999 48.9063ZM27.4999 62.5C28.1629 62.5 28.7988 62.7634 29.2677 63.2322C29.7365 63.7011 29.9999 64.337 29.9999 65C29.9999 65.663 29.7365 66.2989 29.2677 66.7678C28.7988 67.2366 28.1629 67.5 27.4999 67.5C26.8369 67.5 26.201 67.2366 25.7321 66.7678C25.2633 66.2989 24.9999 65.663 24.9999 65C24.9999 64.337 25.2633 63.7011 25.7321 63.2322C26.201 62.7634 26.8369 62.5 27.4999 62.5ZM52.4999 62.5C53.1629 62.5 53.7988 62.7634 54.2677 63.2322C54.7365 63.7011 54.9999 64.337 54.9999 65C54.9999 65.663 54.7365 66.2989 54.2677 66.7678C53.7988 67.2366 53.1629 67.5 52.4999 67.5C51.8369 67.5 51.201 67.2366 50.7321 66.7678C50.2633 66.2989 49.9999 65.663 49.9999 65C49.9999 64.337 50.2633 63.7011 50.7321 63.2322C51.201 62.7634 51.8369 62.5 52.4999 62.5ZM23.9062 73.9062V77.3438H28.5937V73.9062H23.9062ZM51.4061 73.9062V77.3438H56.0936V73.9062H51.4061Z" fill="black"/>
</svg>
