<svg width="80" height="80" viewBox="0 0 80 80" fill="none" xmlns="http://www.w3.org/2000/svg">
<path fill-rule="evenodd" clip-rule="evenodd" d="M66.6666 13.3333H13.3333C12.4492 13.3333 11.6014 13.6845 10.9762 14.3096C10.3511 14.9347 9.99992 15.7826 9.99992 16.6666V63.3333C9.99992 64.2173 10.3511 65.0652 10.9762 65.6903C11.6014 66.3154 12.4492 66.6666 13.3333 66.6666H66.6666C67.5506 66.6666 68.3985 66.3154 69.0236 65.6903C69.6487 65.0652 69.9999 64.2173 69.9999 63.3333V16.6666C69.9999 15.7826 69.6487 14.9347 69.0236 14.3096C68.3985 13.6845 67.5506 13.3333 66.6666 13.3333ZM13.3333 6.66663C10.6811 6.66663 8.13755 7.72019 6.26218 9.59556C4.38682 11.4709 3.33325 14.0145 3.33325 16.6666V63.3333C3.33325 65.9855 4.38682 68.529 6.26218 70.4044C8.13755 72.2797 10.6811 73.3333 13.3333 73.3333H66.6666C69.3188 73.3333 71.8623 72.2797 73.7377 70.4044C75.613 68.529 76.6666 65.9855 76.6666 63.3333V16.6666C76.6666 14.0145 75.613 11.4709 73.7377 9.59556C71.8623 7.72019 69.3188 6.66663 66.6666 6.66663H13.3333ZM19.9999 23.3333H26.6666V30H19.9999V23.3333ZM36.6666 23.3333C35.7825 23.3333 34.9347 23.6845 34.3096 24.3096C33.6844 24.9347 33.3333 25.7826 33.3333 26.6666C33.3333 27.5507 33.6844 28.3985 34.3096 29.0236C34.9347 29.6488 35.7825 30 36.6666 30H56.6666C57.5506 30 58.3985 29.6488 59.0236 29.0236C59.6487 28.3985 59.9999 27.5507 59.9999 26.6666C59.9999 25.7826 59.6487 24.9347 59.0236 24.3096C58.3985 23.6845 57.5506 23.3333 56.6666 23.3333H36.6666ZM26.6666 36.6666H19.9999V43.3333H26.6666V36.6666ZM33.3333 40C33.3333 39.1159 33.6844 38.2681 34.3096 37.6429C34.9347 37.0178 35.7825 36.6666 36.6666 36.6666H56.6666C57.5506 36.6666 58.3985 37.0178 59.0236 37.6429C59.6487 38.2681 59.9999 39.1159 59.9999 40C59.9999 40.884 59.6487 41.7319 59.0236 42.357C58.3985 42.9821 57.5506 43.3333 56.6666 43.3333H36.6666C35.7825 43.3333 34.9347 42.9821 34.3096 42.357C33.6844 41.7319 33.3333 40.884 33.3333 40ZM26.6666 50H19.9999V56.6666H26.6666V50ZM33.3333 53.3333C33.3333 52.4492 33.6844 51.6014 34.3096 50.9763C34.9347 50.3511 35.7825 50 36.6666 50H56.6666C57.5506 50 58.3985 50.3511 59.0236 50.9763C59.6487 51.6014 59.9999 52.4492 59.9999 53.3333C59.9999 54.2173 59.6487 55.0652 59.0236 55.6903C58.3985 56.3154 57.5506 56.6666 56.6666 56.6666H36.6666C35.7825 56.6666 34.9347 56.3154 34.3096 55.6903C33.6844 55.0652 33.3333 54.2173 33.3333 53.3333Z" fill="black"/>
</svg>
