<svg width="80" height="80" viewBox="0 0 80 80" fill="none" xmlns="http://www.w3.org/2000/svg">
<g clip-path="url(#clip0_355_397)">
<mask id="mask0_355_397" style="mask-type:luminance" maskUnits="userSpaceOnUse" x="0" y="0" width="80" height="80">
<path d="M0 0H80V80H0V0Z" fill="white"/>
<path fill-rule="evenodd" clip-rule="evenodd" d="M39.9998 43.077C41.212 43.077 42.4123 42.8383 43.5323 42.3744C44.6522 41.9105 45.6698 41.2305 46.527 40.3734C47.3841 39.5162 48.064 38.4986 48.5279 37.3787C48.9918 36.2588 49.2306 35.0585 49.2306 33.8462C49.2306 32.634 48.9918 31.4337 48.5279 30.3138C48.064 29.1939 47.3841 28.1763 46.527 27.3191C45.6698 26.462 44.6522 25.782 43.5323 25.3181C42.4123 24.8542 41.212 24.6155 39.9998 24.6155C37.5517 24.6155 35.2038 25.588 33.4727 27.3191C31.7416 29.0502 30.769 31.3981 30.769 33.8462C30.769 36.2944 31.7416 38.6423 33.4727 40.3734C35.2038 42.1045 37.5517 43.077 39.9998 43.077ZM39.9998 27.6924C41.6319 27.6924 43.1972 28.3408 44.3512 29.4948C45.5053 30.6489 46.1537 32.2141 46.1537 33.8462C46.1537 35.4784 45.5053 37.0436 44.3512 38.1977C43.1972 39.3517 41.6319 40.0001 39.9998 40.0001C38.3677 40.0001 36.8025 39.3517 35.6484 38.1977C34.4943 37.0436 33.846 35.4784 33.846 33.8462C33.846 32.2141 34.4943 30.6489 35.6484 29.4948C36.8025 28.3408 38.3677 27.6924 39.9998 27.6924Z" fill="black"/>
<path fill-rule="evenodd" clip-rule="evenodd" d="M18.4614 34.2247C18.4614 46.5385 31.4553 67.6924 39.9999 67.6924C48.5445 67.6924 61.5383 46.5385 61.5383 34.2247C61.5383 22.1262 51.9014 12.3077 39.9999 12.3077C28.0983 12.3077 18.4614 22.1262 18.4614 34.2247ZM58.4614 34.2247C58.4614 45.0554 46.4491 64.6154 39.9999 64.6154C33.5507 64.6154 21.5383 45.0554 21.5383 34.2247C21.5383 23.8154 29.8091 15.3847 39.9999 15.3847C50.1907 15.3847 58.4614 23.8154 58.4614 34.2247Z" fill="black"/>
</mask>
<g mask="url(#mask0_355_397)">
<path d="M40 80C62.0914 80 80 62.0914 80 40C80 17.9086 62.0914 0 40 0C17.9086 0 0 17.9086 0 40C0 62.0914 17.9086 80 40 80Z" fill="#D70707"/>
</g>
</g>
<defs>
<clipPath id="clip0_355_397">
<rect width="80" height="80" fill="white"/>
</clipPath>
</defs>
</svg>
