<svg width="80" height="80" viewBox="0 0 80 80" fill="none" xmlns="http://www.w3.org/2000/svg">
<path d="M50 70L30 63L14.5 69C13.3889 69.4444 12.3611 69.32 11.4167 68.6267C10.4722 67.9333 10 67.0022 10 65.8333V19.1667C10 18.4444 10.2089 17.8056 10.6267 17.25C11.0444 16.6944 11.6133 16.2778 12.3333 16L30 10L50 17L65.5 11C66.6111 10.5556 67.6389 10.6811 68.5833 11.3767C69.5278 12.0722 70 13.0022 70 14.1667V60.8333C70 61.5556 69.7922 62.1944 69.3767 62.75C68.9611 63.3056 68.3911 63.7222 67.6667 64L50 70ZM46.6667 61.8333V22.8333L33.3333 18.1667V57.1667L46.6667 61.8333ZM53.3333 61.8333L63.3333 58.5V19L53.3333 22.8333V61.8333ZM16.6667 61L26.6667 57.1667V18.1667L16.6667 21.5V61Z" fill="black"/>
</svg>
