<svg xmlns="http://www.w3.org/2000/svg" width="16" height="16" viewBox="0 0 16 16" fill="none">
  <path d="M14.8156 6.315L14.9806 7.05C15.0056 7.1615 15.0056 7.272 14.9846 7.376C15.0035 7.44985 15.0053 7.52705 14.9898 7.60168C14.9743 7.67632 14.9419 7.74643 14.8952 7.80664C14.8484 7.86685 14.7885 7.91558 14.72 7.94909C14.6516 7.98261 14.5764 8.00002 14.5001 8H13.3726L12.6311 7.0115V7.0105C12.5125 6.85175 12.3584 6.72292 12.1811 6.63429C12.0038 6.54565 11.8083 6.49967 11.6101 6.5H11.5001V5.655C11.5001 5.294 11.2061 5 10.8451 5H10.1551C9.79412 5 9.50012 5.294 9.50012 5.655V6.495H6.50012V5.655C6.50012 5.294 6.20612 5 5.84512 5H5.15512C4.79412 5 4.50012 5.294 4.50012 5.655V6.5H4.39012C3.98612 6.5 3.60862 6.6905 3.36512 7.015L2.62712 8H1.50012C1.42389 8.00002 1.34866 7.98261 1.28019 7.94909C1.21172 7.91558 1.15182 7.86685 1.10507 7.80664C1.05832 7.74643 1.02595 7.67632 1.01045 7.60168C0.994946 7.52705 0.996714 7.44985 1.01562 7.376C0.993731 7.26829 0.995095 7.15714 1.01962 7.05L1.17962 6.315C1.35786 5.51684 1.8026 4.80316 2.44059 4.2915C3.07858 3.77983 3.8718 3.50067 4.68962 3.5H11.3106C12.128 3.50008 12.921 3.77911 13.5583 4.29097C14.1956 4.80283 14.6392 5.51685 14.8156 6.315Z" fill="black"/>
  <path d="M12.23 7.31L14.06 9.75C14.6702 10.5616 15.0001 11.5496 15 12.565V14.22C15 14.65 14.65 15 14.22 15H1.78C1.35 15 1 14.65 1 14.22V12.565C1 11.55 1.33 10.56 1.94 9.75L3.765 7.315C3.915 7.115 4.145 7 4.39 7H4.845C4.93 7 5 6.93 5 6.845V5.655C5 5.57 5.07 5.5 5.155 5.5H5.845C5.93 5.5 6 5.57 6 5.655V6.845C6 6.93 6.07 7 6.155 7H9.845C9.93 7 10 6.93 10 6.845V5.655C10 5.57 10.07 5.5 10.155 5.5H10.845C10.93 5.5 11 5.57 11 5.655V6.845C11 6.93 11.07 7 11.155 7H11.61C11.855 7 12.085 7.115 12.23 7.31ZM6.849 9.5C6.934 9.5 7.0045 9.43 6.9995 9.344V8.656C6.99937 8.61475 6.98296 8.57522 6.95384 8.54601C6.92472 8.5168 6.88525 8.50026 6.844 8.5H6.156C6.11467 8.50013 6.07506 8.51661 6.04584 8.54584C6.01661 8.57506 6.00013 8.61467 6 8.656V9.344C6 9.4295 6.07 9.5 6.161 9.5H6.849ZM8.349 9.5C8.3693 9.50015 8.38941 9.49618 8.40813 9.48833C8.42685 9.48048 8.44378 9.46891 8.4579 9.45433C8.47202 9.43974 8.48303 9.42245 8.49026 9.40348C8.4975 9.38452 8.50081 9.36428 8.5 9.344V8.656C8.49974 8.61471 8.48322 8.57518 8.45402 8.54598C8.42482 8.51678 8.38529 8.50026 8.344 8.5H7.656C7.61467 8.50013 7.57506 8.51661 7.54584 8.54584C7.51661 8.57506 7.50013 8.61467 7.5 8.656V9.344C7.5 9.4295 7.57 9.5 7.661 9.5H8.349ZM9.161 9.5H9.849C9.8693 9.50015 9.88941 9.49618 9.90813 9.48833C9.92685 9.48048 9.94378 9.46891 9.9579 9.45433C9.97202 9.43974 9.98303 9.42245 9.99026 9.40348C9.9975 9.38452 10.0008 9.36428 10 9.344V8.656C9.99974 8.61471 9.98322 8.57518 9.95402 8.54598C9.92482 8.51678 9.88529 8.50026 9.844 8.5H9.156C9.11467 8.50013 9.07506 8.51661 9.04584 8.54584C9.01661 8.57506 9.00013 8.61467 9 8.656V9.344C9 9.4295 9.07 9.5 9.161 9.5ZM6.849 11C6.934 11 7.0045 10.93 6.9995 10.844V10.156C6.99937 10.1148 6.98296 10.0752 6.95384 10.046C6.92472 10.0168 6.88525 10.0003 6.844 10H6.156C6.11467 10.0001 6.07506 10.0166 6.04584 10.0458C6.01661 10.0751 6.00013 10.1147 6 10.156V10.844C6 10.9295 6.07 11 6.161 11H6.849ZM7.661 11H8.349C8.3693 11.0002 8.38941 10.9962 8.40813 10.9883C8.42685 10.9805 8.44378 10.9689 8.4579 10.9543C8.47202 10.9397 8.48303 10.9224 8.49026 10.9035C8.4975 10.8845 8.50081 10.8643 8.5 10.844V10.156C8.49974 10.1147 8.48322 10.0752 8.45402 10.046C8.42482 10.0168 8.38529 10.0003 8.344 10H7.656C7.61467 10.0001 7.57506 10.0166 7.54584 10.0458C7.51661 10.0751 7.50013 10.1147 7.5 10.156V10.844C7.5 10.9295 7.57 11 7.661 11ZM9.849 11C9.8693 11.0002 9.88941 10.9962 9.90813 10.9883C9.92685 10.9805 9.94378 10.9689 9.9579 10.9543C9.97202 10.9397 9.98303 10.9224 9.99026 10.9035C9.9975 10.8845 10.0008 10.8643 10 10.844V10.156C9.99974 10.1147 9.98322 10.0752 9.95402 10.046C9.92482 10.0168 9.88529 10.0003 9.844 10H9.156C9.11467 10.0001 9.07506 10.0166 9.04584 10.0458C9.01661 10.0751 9.00013 10.1147 9 10.156V10.844C9 10.9295 9.07 11 9.161 11H9.849ZM6.161 12.5H6.849C6.934 12.5 7.0045 12.43 6.9995 12.344V11.656C6.99937 11.6148 6.98296 11.5752 6.95384 11.546C6.92472 11.5168 6.88525 11.5003 6.844 11.5H6.156C6.11467 11.5001 6.07506 11.5166 6.04584 11.5458C6.01661 11.5751 6.00013 11.6147 6 11.656V12.344C6 12.4295 6.07 12.5 6.161 12.5ZM8.349 12.5C8.3693 12.5002 8.38941 12.4962 8.40813 12.4883C8.42685 12.4805 8.44378 12.4689 8.4579 12.4543C8.47202 12.4397 8.48303 12.4224 8.49026 12.4035C8.4975 12.3845 8.50081 12.3643 8.5 12.344V11.656C8.49974 11.6147 8.48322 11.5752 8.45402 11.546C8.42482 11.5168 8.38529 11.5003 8.344 11.5H7.656C7.61467 11.5001 7.57506 11.5166 7.54584 11.5458C7.51661 11.5751 7.50013 11.6147 7.5 11.656V12.344C7.5 12.4295 7.57 12.5 7.661 12.5H8.349ZM9.161 12.5H9.849C9.8693 12.5002 9.88941 12.4962 9.90813 12.4883C9.92685 12.4805 9.94378 12.4689 9.9579 12.4543C9.97202 12.4397 9.98303 12.4224 9.99026 12.4035C9.9975 12.3845 10.0008 12.3643 10 12.344V11.656C9.99974 11.6147 9.98322 11.5752 9.95402 11.546C9.92482 11.5168 9.88529 11.5003 9.844 11.5H9.156C9.11467 11.5001 9.07506 11.5166 9.04584 11.5458C9.01661 11.5751 9.00013 11.6147 9 11.656V12.344C9 12.4295 9.07 12.5 9.161 12.5Z" fill="black"/>
</svg>