<svg width="80" height="80" viewBox="0 0 80 80" fill="none" xmlns="http://www.w3.org/2000/svg">
<path d="M23.3999 22.5H33.3999M23.3999 40H53.3999M23.3999 50H53.3999M23.3999 60H33.3999M18.3999 72.5H58.3999C59.726 72.5 60.9978 71.9732 61.9354 71.0355C62.8731 70.0979 63.3999 68.8261 63.3999 67.5V12.5C63.3999 11.1739 62.8731 9.90215 61.9354 8.96447C60.9978 8.02678 59.726 7.5 58.3999 7.5H18.3999C17.0738 7.5 15.8021 8.02678 14.8644 8.96447C13.9267 9.90215 13.3999 11.1739 13.3999 12.5V67.5C13.3999 68.8261 13.9267 70.0979 14.8644 71.0355C15.8021 71.9732 17.0738 72.5 18.3999 72.5Z" stroke="#D70707" stroke-width="2" stroke-linecap="round" stroke-linejoin="round"/>
<path d="M53.3999 23.75C54.0903 23.75 54.6499 23.1904 54.6499 22.5C54.6499 21.8096 54.0903 21.25 53.3999 21.25C52.7095 21.25 52.1499 21.8096 52.1499 22.5C52.1499 23.1904 52.7095 23.75 53.3999 23.75Z" fill="#D70707" stroke="#D70707"/>
</svg>
