<svg width="80" height="80" viewBox="0 0 80 80" fill="none" xmlns="http://www.w3.org/2000/svg">
<path d="M65.3333 70L44.3333 49C42.6667 50.3333 40.75 51.3889 38.5833 52.1667C36.4167 52.9444 34.1111 53.3333 31.6667 53.3333C25.6111 53.3333 20.4867 51.2356 16.2933 47.04C12.1 42.8444 10.0022 37.72 10 31.6667C10 25.6111 12.0978 20.4867 16.2933 16.2933C20.4889 12.1 25.6133 10.0022 31.6667 10C37.7222 10 42.8478 12.0978 47.0433 16.2933C51.2389 20.4889 53.3356 25.6133 53.3333 31.6667C53.3333 34.1111 52.9444 36.4167 52.1667 38.5833C51.3889 40.75 50.3333 42.6667 49 44.3333L70 65.3333L65.3333 70ZM31.6667 46.6667C35.8333 46.6667 39.3756 45.2089 42.2933 42.2933C45.2111 39.3778 46.6689 35.8356 46.6667 31.6667C46.6667 27.5 45.2089 23.9589 42.2933 21.0433C39.3778 18.1278 35.8356 16.6689 31.6667 16.6667C27.5 16.6667 23.9589 18.1256 21.0433 21.0433C18.1278 23.9611 16.6689 27.5022 16.6667 31.6667C16.6667 35.8333 18.1256 39.3756 21.0433 42.2933C23.9611 45.2111 27.5022 46.6689 31.6667 46.6667Z" fill="#A6A6A6"/>
</svg>
